<svg width="44" height="44" viewBox="0 0 44 44" fill="none" xmlns="http://www.w3.org/2000/svg">
<rect width="44" height="44" rx="22" fill="#F4E9D9"/>
<path d="M22 25.375C28.0061 25.375 32.875 20.8027 32.875 15.625H11.125C11.125 20.8027 15.9939 25.375 22 25.375Z" stroke="black" stroke-width="2.25" stroke-linecap="round" stroke-linejoin="round"/>
<path d="M17.5 11.125V11.875" stroke="black" stroke-width="2.25" stroke-linecap="round" stroke-linejoin="round"/>
<path d="M22 11.125V11.875" stroke="black" stroke-width="2.25" stroke-linecap="round" stroke-linejoin="round"/>
<path d="M26.5 11.125V11.875" stroke="black" stroke-width="2.25" stroke-linecap="round" stroke-linejoin="round"/>
<path d="M26.125 25L29.875 32.875" stroke="black" stroke-width="2.25" stroke-linecap="round" stroke-linejoin="round"/>
<path d="M17.125 30.625H28.75" stroke="black" stroke-width="2.25" stroke-linecap="round" stroke-linejoin="round"/>
<path d="M17.5 25L15.625 28.75" stroke="black" stroke-width="2.25" stroke-linecap="round" stroke-linejoin="round"/>
<path d="M16.375 31C16.375 32.0356 15.5355 32.875 14.5 32.875C13.4645 32.875 12.625 32.0356 12.625 31C12.625 29.9644 13.4645 29.125 14.5 29.125C15.5355 29.125 16.375 29.9644 16.375 31Z" stroke="black" stroke-width="2.25" stroke-linecap="round" stroke-linejoin="round"/>
</svg>
