<svg width="44" height="44" viewBox="0 0 44 44" fill="none" xmlns="http://www.w3.org/2000/svg">
<rect width="44" height="44" rx="22" fill="#DEF5FF"/>
<path d="M21.6127 27.851L17.125 26.125V32.875L21.6127 31.149C22.6164 32.0053 24.1081 32.875 26.0278 32.875C29.8094 32.875 32.875 31.3639 32.875 29.5C32.875 27.6361 29.8094 26.125 26.0278 26.125C24.1081 26.125 22.6164 26.9947 21.6127 27.851Z" stroke="#394C63" stroke-width="2.25" stroke-linecap="round" stroke-linejoin="round"/>
<path d="M15.0615 15.0615L11.125 11.125V23.875L15.0615 19.9385C16.6545 21.1569 18.9978 22.375 22 22.375C28.0061 22.375 32.875 20.1923 32.875 17.5C32.875 14.8076 28.0061 12.625 22 12.625C18.9978 12.625 16.6545 13.8431 15.0615 15.0615Z" stroke="#394C63" stroke-width="2.25" stroke-linecap="round" stroke-linejoin="round"/>
<path d="M27.25 17.5C27.25 17.9142 26.9142 18.25 26.5 18.25C26.0858 18.25 25.75 17.9142 25.75 17.5C25.75 17.0858 26.0858 16.75 26.5 16.75C26.9142 16.75 27.25 17.0858 27.25 17.5Z" stroke="#394C63" stroke-linecap="round" stroke-linejoin="round"/>
</svg>
