<svg width="44" height="44" viewBox="0 0 44 44" fill="none" xmlns="http://www.w3.org/2000/svg">
<rect width="44" height="44" rx="22" fill="#FFE1DB"/>
<path d="M32.875 22C32.875 28.0061 28.0061 32.875 22 32.875C15.9939 32.875 11.125 28.0061 11.125 22C11.125 15.9939 15.9939 11.125 22 11.125" stroke="black" stroke-width="2.25" stroke-linecap="round" stroke-linejoin="round"/>
<path d="M18.25 19C18.25 19.4142 17.9142 19.75 17.5 19.75C17.0858 19.75 16.75 19.4142 16.75 19C16.75 18.5858 17.0858 18.25 17.5 18.25C17.9142 18.25 18.25 18.5858 18.25 19Z" stroke="black" stroke-width="1.5" stroke-linecap="round" stroke-linejoin="round"/>
<path d="M21.25 26.5C21.25 26.9142 20.9142 27.25 20.5 27.25C20.0858 27.25 19.75 26.9142 19.75 26.5C19.75 26.0858 20.0858 25.75 20.5 25.75C20.9142 25.75 21.25 26.0858 21.25 26.5Z" stroke="black" stroke-width="1.5" stroke-linecap="round" stroke-linejoin="round"/>
<path d="M28.75 25C28.75 25.4142 28.4142 25.75 28 25.75C27.5858 25.75 27.25 25.4142 27.25 25C27.25 24.5858 27.5858 24.25 28 24.25C28.4142 24.25 28.75 24.5858 28.75 25Z" stroke="black" stroke-width="1.5" stroke-linecap="round" stroke-linejoin="round"/>
<path d="M25 19L23.8948 18.7895C23.8252 19.1554 23.9411 19.5321 24.2045 19.7955C24.4679 20.0589 24.8446 20.1748 25.2104 20.1052L25 19ZM26.5 11.125V10C25.9598 10 25.4959 10.3839 25.3948 10.9145L26.5 11.125ZM32.875 17.5L33.0854 18.6051C33.6161 18.5041 34 18.0401 34 17.5H32.875ZM26.1052 19.2104L27.6052 11.3355L25.3948 10.9145L23.8948 18.7895L26.1052 19.2104ZM32.6645 16.3949L24.7895 17.8949L25.2104 20.1052L33.0854 18.6051L32.6645 16.3949ZM26.5 12.25H26.875V10H26.5V12.25ZM31.75 17.125V17.5H34V17.125H31.75ZM26.875 12.25C29.5673 12.25 31.75 14.4326 31.75 17.125H34C34 13.19 30.8101 10 26.875 10V12.25Z" fill="black"/>
</svg>
